<svg xmlns="http://www.w3.org/2000/svg" xmlns:xlink="http://www.w3.org/1999/xlink" width="480" zoomAndPan="magnify" viewBox="0 0 360 359.999987" height="480" preserveAspectRatio="xMidYMid meet" version="1.2"><g id="8dc4182871"><path style=" stroke:none;fill-rule:nonzero;fill:#ff66c4;fill-opacity:1;" d="M 180 108 C 140.234375 108 108 140.234375 108 180 C 108 219.765625 140.234375 252 180 252 C 219.765625 252 252 219.765625 252 180 C 252 140.234375 219.765625 108 180 108 Z M 180 246.546875 C 143.246094 246.546875 113.453125 216.753906 113.453125 180 C 113.453125 143.246094 143.246094 113.453125 180 113.453125 C 216.753906 113.453125 246.546875 143.246094 246.546875 180 C 246.546875 216.753906 216.753906 246.546875 180 246.546875 Z M 180 246.546875 "/><path style=" stroke:none;fill-rule:nonzero;fill:#ff66c4;fill-opacity:1;" d="M 171.550781 215.292969 C 169.742188 215.464844 168.300781 215.664062 166.851562 215.734375 C 158.636719 216.121094 152.554688 212.882812 148.867188 205.332031 C 147.691406 202.925781 146.1875 200.65625 144.621094 198.476562 C 143.683594 197.167969 142.363281 196.117188 141.148438 195.027344 L 141.132812 195.011719 C 140.378906 194.351562 140.710938 193.113281 141.699219 192.945312 C 142.859375 192.75 143.941406 192.960938 144.996094 193.230469 C 148.300781 194.070312 150.421875 196.410156 152.109375 199.210938 C 155.929688 205.546875 162.511719 208.1875 169.625 206.300781 C 170.832031 205.980469 171.363281 205.460938 171.628906 204.144531 C 171.933594 202.605469 172.351562 201.09375 172.800781 199.550781 C 172.867188 199.320312 172.90625 199.089844 172.925781 198.855469 C 172.945312 198.617188 172.941406 198.382812 172.910156 198.148438 C 172.882812 197.914062 172.828125 197.683594 172.753906 197.457031 C 172.679688 197.234375 172.582031 197.019531 172.460938 196.816406 C 172.34375 196.609375 172.203125 196.421875 172.046875 196.246094 C 171.886719 196.066406 171.710938 195.910156 171.523438 195.769531 C 171.332031 195.628906 171.128906 195.507812 170.914062 195.40625 C 170.699219 195.308594 170.476562 195.230469 170.246094 195.175781 L 170.207031 195.167969 C 162.824219 193.402344 156.449219 190.113281 152.339844 183.367188 C 150.140625 179.757812 149.054688 175.785156 149.113281 171.644531 C 149.175781 166.949219 149.589844 162.242188 150.128906 157.570312 C 150.511719 154.285156 152.03125 151.371094 154.398438 149.007812 C 155.222656 148.183594 155.292969 147.492188 154.894531 146.425781 C 153.265625 142.054688 153.546875 137.675781 154.992188 133.296875 C 155.402344 132.0625 155.980469 131.886719 157.160156 132.257812 C 160.820312 133.410156 163.546875 135.789062 165.945312 138.636719 L 165.972656 138.667969 C 166.273438 139.03125 166.621094 139.339844 167.015625 139.597656 C 167.410156 139.855469 167.832031 140.050781 168.285156 140.179688 C 168.738281 140.3125 169.199219 140.371094 169.667969 140.363281 C 170.140625 140.355469 170.601562 140.28125 171.046875 140.136719 C 178.636719 137.644531 190.152344 137.613281 197.3125 140.078125 C 197.761719 140.230469 198.226562 140.3125 198.699219 140.324219 C 199.175781 140.335938 199.640625 140.277344 200.097656 140.152344 C 200.554688 140.023438 200.984375 139.828125 201.382812 139.570312 C 201.78125 139.3125 202.132812 139 202.4375 138.636719 L 202.460938 138.609375 C 204.863281 135.757812 207.601562 133.398438 211.257812 132.242188 C 212.484375 131.855469 213.007812 132.148438 213.394531 133.34375 C 214.820312 137.722656 215.0625 142.074219 213.519531 146.492188 C 213.304688 147.113281 213.3125 148.195312 213.699219 148.585938 C 216.976562 151.910156 218.410156 156.039062 218.777344 160.507812 C 219.128906 164.828125 219.507812 169.222656 219.105469 173.511719 C 218.0625 184.667969 211.28125 191.164062 200.964844 194.394531 C 200.082031 194.671875 199.1875 194.902344 198.269531 195.121094 C 198.03125 195.175781 197.804688 195.257812 197.582031 195.363281 C 197.359375 195.464844 197.152344 195.59375 196.957031 195.738281 C 196.761719 195.886719 196.585938 196.054688 196.425781 196.238281 C 196.265625 196.425781 196.128906 196.625 196.011719 196.839844 C 195.894531 197.054688 195.796875 197.277344 195.726562 197.511719 C 195.65625 197.746094 195.613281 197.984375 195.589844 198.230469 C 195.570312 198.472656 195.574219 198.714844 195.605469 198.960938 C 195.636719 199.203125 195.691406 199.4375 195.773438 199.667969 C 197.179688 203.742188 196.964844 208.089844 196.941406 212.414062 C 196.9375 213.40625 196.933594 214.402344 196.929688 215.394531 C 196.929688 216.21875 196.847656 217.03125 196.683594 217.839844 C 196.523438 218.648438 196.285156 219.429688 195.96875 220.191406 C 195.652344 220.949219 195.265625 221.671875 194.808594 222.355469 C 194.347656 223.039062 193.828125 223.671875 193.246094 224.25 C 192.664062 224.832031 192.03125 225.351562 191.34375 225.808594 C 190.660156 226.265625 189.9375 226.648438 189.175781 226.964844 C 188.417969 227.277344 187.632812 227.515625 186.828125 227.675781 C 186.019531 227.835938 185.203125 227.917969 184.382812 227.917969 L 184.097656 227.917969 C 183.273438 227.917969 182.457031 227.835938 181.652344 227.675781 C 180.84375 227.515625 180.058594 227.277344 179.296875 226.960938 C 178.535156 226.648438 177.8125 226.261719 177.125 225.800781 C 176.441406 225.34375 175.808594 224.824219 175.226562 224.242188 C 174.640625 223.660156 174.121094 223.023438 173.664062 222.339844 C 173.207031 221.65625 172.820312 220.929688 172.503906 220.171875 C 172.1875 219.410156 171.949219 218.625 171.789062 217.816406 C 171.628906 217.007812 171.550781 216.191406 171.550781 215.367188 Z M 171.550781 215.292969 "/></g></svg>