<svg xmlns="http://www.w3.org/2000/svg" xmlns:xlink="http://www.w3.org/1999/xlink" width="480" zoomAndPan="magnify" viewBox="0 0 360 359.999987" height="480" preserveAspectRatio="xMidYMid meet" version="1.2"><defs><clipPath id="fdca7e399a"><path d="M 108.179688 108 L 252 108 L 252 252 L 108.179688 252 Z M 108.179688 108 "/></clipPath></defs><g id="2034431158"><g clip-rule="nonzero" clip-path="url(#fdca7e399a)"><path style=" stroke:none;fill-rule:nonzero;fill:#ff66c4;fill-opacity:1;" d="M 251.816406 179.980469 C 251.816406 181.15625 251.785156 182.328125 251.730469 183.503906 C 251.671875 184.679688 251.585938 185.851562 251.46875 187.023438 C 251.355469 188.191406 251.210938 189.359375 251.039062 190.523438 C 250.867188 191.683594 250.664062 192.84375 250.4375 193.996094 C 250.207031 195.148438 249.949219 196.296875 249.664062 197.4375 C 249.378906 198.578125 249.0625 199.710938 248.722656 200.835938 C 248.382812 201.960938 248.011719 203.078125 247.617188 204.183594 C 247.222656 205.292969 246.796875 206.390625 246.347656 207.476562 C 245.898438 208.5625 245.421875 209.636719 244.921875 210.699219 C 244.417969 211.761719 243.890625 212.8125 243.335938 213.851562 C 242.78125 214.886719 242.203125 215.910156 241.597656 216.917969 C 240.992188 217.925781 240.363281 218.921875 239.710938 219.898438 C 239.058594 220.875 238.382812 221.835938 237.683594 222.78125 C 236.984375 223.726562 236.257812 224.652344 235.515625 225.5625 C 234.769531 226.472656 234 227.359375 233.210938 228.230469 C 232.421875 229.101562 231.613281 229.953125 230.78125 230.785156 C 229.949219 231.617188 229.097656 232.429688 228.226562 233.21875 C 227.355469 234.007812 226.46875 234.777344 225.558594 235.523438 C 224.652344 236.269531 223.722656 236.992188 222.78125 237.691406 C 221.835938 238.390625 220.875 239.070312 219.898438 239.722656 C 218.921875 240.375 217.929688 241.003906 216.917969 241.609375 C 215.910156 242.214844 214.890625 242.792969 213.851562 243.347656 C 212.816406 243.902344 211.765625 244.429688 210.703125 244.933594 C 209.640625 245.433594 208.566406 245.910156 207.480469 246.363281 C 206.394531 246.8125 205.300781 247.234375 204.191406 247.632812 C 203.085938 248.027344 201.972656 248.398438 200.847656 248.738281 C 199.722656 249.078125 198.589844 249.394531 197.449219 249.679688 C 196.308594 249.964844 195.164062 250.222656 194.007812 250.449219 C 192.855469 250.679688 191.699219 250.882812 190.535156 251.054688 C 189.375 251.226562 188.207031 251.371094 187.039062 251.484375 C 185.867188 251.601562 184.695312 251.6875 183.523438 251.746094 C 182.347656 251.804688 181.175781 251.832031 180 251.832031 C 178.824219 251.832031 177.648438 251.804688 176.476562 251.746094 C 175.300781 251.6875 174.128906 251.601562 172.960938 251.484375 C 171.789062 251.371094 170.625 251.226562 169.460938 251.054688 C 168.296875 250.882812 167.140625 250.679688 165.988281 250.449219 C 164.835938 250.222656 163.6875 249.964844 162.546875 249.679688 C 161.410156 249.394531 160.277344 249.078125 159.152344 248.738281 C 158.027344 248.398438 156.910156 248.027344 155.804688 247.632812 C 154.699219 247.234375 153.601562 246.8125 152.515625 246.363281 C 151.429688 245.910156 150.355469 245.433594 149.292969 244.933594 C 148.230469 244.429688 147.179688 243.902344 146.144531 243.347656 C 145.109375 242.792969 144.085938 242.214844 143.078125 241.609375 C 142.070312 241.003906 141.078125 240.375 140.097656 239.722656 C 139.121094 239.070312 138.160156 238.390625 137.21875 237.691406 C 136.273438 236.992188 135.347656 236.269531 134.4375 235.523438 C 133.53125 234.777344 132.640625 234.007812 131.769531 233.21875 C 130.898438 232.429688 130.046875 231.617188 129.214844 230.785156 C 128.386719 229.953125 127.574219 229.101562 126.785156 228.230469 C 125.996094 227.359375 125.230469 226.472656 124.484375 225.5625 C 123.738281 224.652344 123.015625 223.726562 122.316406 222.78125 C 121.613281 221.835938 120.9375 220.875 120.285156 219.898438 C 119.632812 218.921875 119.003906 217.925781 118.398438 216.917969 C 117.792969 215.910156 117.214844 214.886719 116.660156 213.851562 C 116.109375 212.8125 115.578125 211.761719 115.078125 210.699219 C 114.574219 209.636719 114.097656 208.5625 113.648438 207.476562 C 113.199219 206.390625 112.777344 205.292969 112.378906 204.183594 C 111.984375 203.078125 111.613281 201.960938 111.273438 200.835938 C 110.933594 199.710938 110.621094 198.578125 110.332031 197.4375 C 110.046875 196.296875 109.789062 195.148438 109.5625 193.996094 C 109.332031 192.84375 109.132812 191.683594 108.957031 190.523438 C 108.785156 189.359375 108.644531 188.191406 108.527344 187.023438 C 108.414062 185.851562 108.324219 184.679688 108.269531 183.503906 C 108.210938 182.328125 108.179688 181.15625 108.179688 179.980469 C 108.179688 178.804688 108.210938 177.628906 108.269531 176.453125 C 108.324219 175.277344 108.414062 174.105469 108.527344 172.9375 C 108.644531 171.765625 108.785156 170.597656 108.957031 169.433594 C 109.132812 168.273438 109.332031 167.113281 109.5625 165.960938 C 109.789062 164.808594 110.046875 163.660156 110.332031 162.519531 C 110.621094 161.378906 110.933594 160.246094 111.273438 159.121094 C 111.613281 157.996094 111.984375 156.878906 112.378906 155.773438 C 112.777344 154.664062 113.199219 153.566406 113.648438 152.480469 C 114.097656 151.394531 114.574219 150.320312 115.078125 149.257812 C 115.578125 148.195312 116.109375 147.144531 116.660156 146.109375 C 117.214844 145.070312 117.792969 144.046875 118.398438 143.039062 C 119.003906 142.03125 119.632812 141.039062 120.285156 140.058594 C 120.9375 139.082031 121.613281 138.121094 122.316406 137.175781 C 123.015625 136.230469 123.738281 135.304688 124.484375 134.394531 C 125.230469 133.488281 125.996094 132.597656 126.785156 131.726562 C 127.574219 130.855469 128.386719 130.003906 129.214844 129.171875 C 130.046875 128.339844 130.898438 127.527344 131.769531 126.738281 C 132.640625 125.949219 133.53125 125.183594 134.4375 124.4375 C 135.347656 123.691406 136.273438 122.964844 137.21875 122.265625 C 138.160156 121.566406 139.121094 120.890625 140.097656 120.234375 C 141.078125 119.582031 142.070312 118.953125 143.078125 118.347656 C 144.085938 117.742188 145.109375 117.164062 146.144531 116.609375 C 147.179688 116.054688 148.230469 115.527344 149.292969 115.023438 C 150.355469 114.523438 151.429688 114.046875 152.515625 113.59375 C 153.601562 113.144531 154.699219 112.722656 155.804688 112.324219 C 156.910156 111.929688 158.027344 111.5625 159.152344 111.21875 C 160.277344 110.878906 161.40625 110.566406 162.546875 110.28125 C 163.6875 109.992188 164.835938 109.738281 165.988281 109.507812 C 167.140625 109.277344 168.296875 109.078125 169.460938 108.902344 C 170.625 108.730469 171.789062 108.585938 172.960938 108.472656 C 174.128906 108.355469 175.300781 108.269531 176.476562 108.214844 C 177.648438 108.15625 178.824219 108.125 180 108.125 C 181.175781 108.125 182.347656 108.15625 183.523438 108.214844 C 184.695312 108.269531 185.867188 108.355469 187.039062 108.472656 C 188.207031 108.585938 189.375 108.730469 190.535156 108.902344 C 191.699219 109.078125 192.855469 109.277344 194.007812 109.507812 C 195.164062 109.734375 196.308594 109.992188 197.449219 110.28125 C 198.589844 110.566406 199.722656 110.878906 200.847656 111.21875 C 201.972656 111.5625 203.085938 111.929688 204.191406 112.324219 C 205.300781 112.722656 206.394531 113.144531 207.480469 113.59375 C 208.566406 114.046875 209.640625 114.523438 210.703125 115.023438 C 211.765625 115.527344 212.816406 116.054688 213.851562 116.609375 C 214.890625 117.164062 215.910156 117.742188 216.917969 118.347656 C 217.929688 118.953125 218.921875 119.582031 219.898438 120.234375 C 220.875 120.886719 221.835938 121.566406 222.78125 122.265625 C 223.722656 122.964844 224.648438 123.691406 225.558594 124.4375 C 226.46875 125.179688 227.355469 125.949219 228.226562 126.738281 C 229.097656 127.527344 229.949219 128.339844 230.78125 129.171875 C 231.613281 130.003906 232.421875 130.855469 233.210938 131.726562 C 234 132.597656 234.769531 133.484375 235.515625 134.394531 C 236.257812 135.304688 236.980469 136.230469 237.683594 137.175781 C 238.382812 138.121094 239.058594 139.082031 239.710938 140.058594 C 240.363281 141.035156 240.992188 142.03125 241.597656 143.039062 C 242.203125 144.046875 242.78125 145.070312 243.335938 146.105469 C 243.890625 147.144531 244.417969 148.195312 244.921875 149.257812 C 245.421875 150.320312 245.898438 151.394531 246.347656 152.480469 C 246.796875 153.566406 247.222656 154.664062 247.617188 155.773438 C 248.011719 156.878906 248.382812 157.996094 248.722656 159.121094 C 249.0625 160.246094 249.378906 161.378906 249.664062 162.519531 C 249.949219 163.660156 250.207031 164.808594 250.4375 165.960938 C 250.664062 167.113281 250.867188 168.273438 251.039062 169.433594 C 251.210938 170.597656 251.355469 171.765625 251.46875 172.933594 C 251.585938 174.105469 251.671875 175.277344 251.730469 176.453125 C 251.785156 177.628906 251.816406 178.804688 251.816406 179.980469 Z M 251.816406 179.980469 "/></g><path style="fill-rule:evenodd;fill:#ffffff;fill-opacity:1;stroke-width:2.14;stroke-linecap:round;stroke-linejoin:round;stroke:#ffffff;stroke-opacity:1;stroke-miterlimit:1.5;" d="M 30640.396274 9422.354075 L 30685.701864 9422.034829 L 30795.695848 9582.123095 L 30749.99804 9581.721757 Z M 30640.396274 9422.354075 " transform="matrix(0.428255,0,0,0.428255,-12975.17897,-3890.173757)"/><path style="fill-rule:evenodd;fill:#ffffff;fill-opacity:1;stroke-width:2.14;stroke-linecap:round;stroke-linejoin:round;stroke:#ffffff;stroke-opacity:1;stroke-miterlimit:1.5;" d="M 30776.796475 9422.034829 L 30790.898034 9422.034829 L 30653.99616 9582.123095 L 30640.396274 9582.123095 Z M 30776.796475 9422.034829 " transform="matrix(0.428255,0,0,0.428255,-12975.17897,-3890.173757)"/><path style=" stroke:none;fill-rule:evenodd;fill:#ff66c4;fill-opacity:1;" d="M 154.730469 150.179688 L 163.726562 150.234375 L 205.308594 209.777344 L 196.316406 209.765625 Z M 154.730469 150.179688 "/><path style=" stroke:none;fill-rule:evenodd;fill:#ff66c4;fill-opacity:1;" d="M 154.730469 150.179688 L 163.726562 150.234375 L 205.308594 209.777344 L 196.316406 209.765625 Z M 155.417969 150.546875 C 155.417969 150.546875 196.488281 209.40625 196.488281 209.40625 C 196.488281 209.40625 204.625 209.417969 204.625 209.417969 L 163.511719 150.59375 Z M 155.417969 150.546875 "/></g></svg>