<svg xmlns="http://www.w3.org/2000/svg" xmlns:xlink="http://www.w3.org/1999/xlink" width="480" zoomAndPan="magnify" viewBox="0 0 360 359.999987" height="480" preserveAspectRatio="xMidYMid meet" version="1.2"><defs><clipPath id="76dc482d1a"><path d="M 108.179688 108 L 252.179688 108 L 252.179688 252 L 108.179688 252 Z M 108.179688 108 "/></clipPath></defs><g id="1279b4856a"><g clip-rule="nonzero" clip-path="url(#76dc482d1a)"><path style=" stroke:none;fill-rule:nonzero;fill:#000000;fill-opacity:1;" d="M 252.179688 179.980469 C 252.179688 181.15625 252.148438 182.328125 252.09375 183.503906 C 252.035156 184.679688 251.949219 185.851562 251.832031 187.023438 C 251.71875 188.191406 251.574219 189.359375 251.398438 190.523438 C 251.226562 191.683594 251.027344 192.84375 250.796875 193.996094 C 250.566406 195.148438 250.308594 196.296875 250.019531 197.4375 C 249.734375 198.578125 249.421875 199.710938 249.078125 200.835938 C 248.738281 201.960938 248.367188 203.078125 247.96875 204.183594 C 247.574219 205.292969 247.148438 206.390625 246.699219 207.476562 C 246.246094 208.5625 245.769531 209.636719 245.265625 210.699219 C 244.761719 211.761719 244.234375 212.8125 243.675781 213.851562 C 243.121094 214.886719 242.542969 215.910156 241.9375 216.917969 C 241.328125 217.925781 240.699219 218.921875 240.046875 219.898438 C 239.390625 220.875 238.710938 221.835938 238.011719 222.78125 C 237.308594 223.726562 236.582031 224.652344 235.835938 225.5625 C 235.089844 226.472656 234.320312 227.359375 233.527344 228.230469 C 232.738281 229.101562 231.925781 229.953125 231.089844 230.785156 C 230.257812 231.617188 229.40625 232.429688 228.53125 233.21875 C 227.660156 234.007812 226.765625 234.777344 225.855469 235.523438 C 224.945312 236.269531 224.015625 236.992188 223.070312 237.691406 C 222.125 238.390625 221.160156 239.070312 220.179688 239.722656 C 219.199219 240.375 218.207031 241.003906 217.195312 241.609375 C 216.183594 242.214844 215.160156 242.792969 214.121094 243.347656 C 213.082031 243.902344 212.027344 244.429688 210.964844 244.933594 C 209.898438 245.433594 208.820312 245.910156 207.734375 246.363281 C 206.644531 246.8125 205.546875 247.234375 204.4375 247.632812 C 203.328125 248.027344 202.207031 248.398438 201.082031 248.738281 C 199.953125 249.078125 198.816406 249.394531 197.675781 249.679688 C 196.53125 249.964844 195.382812 250.222656 194.226562 250.449219 C 193.070312 250.679688 191.910156 250.882812 190.746094 251.054688 C 189.578125 251.226562 188.410156 251.371094 187.238281 251.484375 C 186.066406 251.601562 184.890625 251.6875 183.714844 251.746094 C 182.535156 251.804688 181.359375 251.832031 180.179688 251.832031 C 179.003906 251.832031 177.824219 251.804688 176.648438 251.746094 C 175.472656 251.6875 174.296875 251.601562 173.125 251.484375 C 171.949219 251.371094 170.78125 251.226562 169.617188 251.054688 C 168.449219 250.882812 167.289062 250.679688 166.132812 250.449219 C 164.976562 250.222656 163.828125 249.964844 162.6875 249.679688 C 161.542969 249.394531 160.40625 249.078125 159.28125 248.738281 C 158.152344 248.398438 157.035156 248.027344 155.925781 247.632812 C 154.816406 247.234375 153.714844 246.8125 152.628906 246.363281 C 151.539062 245.910156 150.460938 245.433594 149.398438 244.933594 C 148.332031 244.429688 147.28125 243.902344 146.242188 243.347656 C 145.203125 242.792969 144.175781 242.214844 143.164062 241.609375 C 142.15625 241.003906 141.160156 240.375 140.179688 239.722656 C 139.199219 239.070312 138.238281 238.390625 137.289062 237.691406 C 136.34375 236.992188 135.414062 236.269531 134.503906 235.523438 C 133.59375 234.777344 132.703125 234.007812 131.828125 233.21875 C 130.957031 232.429688 130.101562 231.617188 129.269531 230.785156 C 128.4375 229.953125 127.625 229.101562 126.832031 228.230469 C 126.042969 227.359375 125.273438 226.472656 124.523438 225.5625 C 123.777344 224.652344 123.050781 223.726562 122.351562 222.78125 C 121.648438 221.835938 120.96875 220.875 120.316406 219.898438 C 119.660156 218.921875 119.03125 217.925781 118.425781 216.917969 C 117.820312 215.910156 117.238281 214.886719 116.683594 213.851562 C 116.128906 212.8125 115.597656 211.761719 115.09375 210.699219 C 114.589844 209.636719 114.113281 208.5625 113.664062 207.476562 C 113.210938 206.390625 112.789062 205.292969 112.390625 204.183594 C 111.992188 203.078125 111.625 201.960938 111.28125 200.835938 C 110.941406 199.710938 110.625 198.578125 110.339844 197.4375 C 110.054688 196.296875 109.796875 195.148438 109.566406 193.996094 C 109.335938 192.84375 109.132812 191.683594 108.960938 190.523438 C 108.789062 189.359375 108.644531 188.191406 108.527344 187.023438 C 108.414062 185.851562 108.328125 184.679688 108.269531 183.503906 C 108.210938 182.328125 108.183594 181.15625 108.183594 179.980469 C 108.183594 178.804688 108.210938 177.628906 108.269531 176.453125 C 108.328125 175.277344 108.414062 174.105469 108.527344 172.9375 C 108.644531 171.765625 108.789062 170.597656 108.960938 169.433594 C 109.132812 168.273438 109.335938 167.113281 109.566406 165.960938 C 109.796875 164.808594 110.054688 163.660156 110.339844 162.519531 C 110.625 161.378906 110.941406 160.246094 111.28125 159.121094 C 111.625 157.996094 111.992188 156.878906 112.390625 155.773438 C 112.789062 154.664062 113.210938 153.566406 113.664062 152.480469 C 114.113281 151.394531 114.589844 150.320312 115.09375 149.257812 C 115.597656 148.195312 116.128906 147.144531 116.683594 146.109375 C 117.238281 145.070312 117.820312 144.046875 118.425781 143.039062 C 119.03125 142.03125 119.660156 141.039062 120.316406 140.058594 C 120.96875 139.082031 121.648438 138.121094 122.351562 137.175781 C 123.050781 136.230469 123.777344 135.304688 124.523438 134.394531 C 125.273438 133.488281 126.042969 132.597656 126.832031 131.726562 C 127.625 130.855469 128.4375 130.003906 129.269531 129.171875 C 130.101562 128.339844 130.957031 127.527344 131.828125 126.738281 C 132.703125 125.949219 133.59375 125.183594 134.503906 124.4375 C 135.414062 123.691406 136.34375 122.964844 137.289062 122.265625 C 138.238281 121.566406 139.199219 120.890625 140.179688 120.234375 C 141.160156 119.582031 142.15625 118.953125 143.164062 118.347656 C 144.175781 117.742188 145.203125 117.164062 146.242188 116.609375 C 147.28125 116.054688 148.332031 115.527344 149.398438 115.023438 C 150.460938 114.523438 151.539062 114.046875 152.628906 113.59375 C 153.714844 113.144531 154.816406 112.722656 155.925781 112.324219 C 157.035156 111.929688 158.152344 111.5625 159.28125 111.21875 C 160.40625 110.878906 161.542969 110.566406 162.6875 110.28125 C 163.828125 109.992188 164.976562 109.738281 166.132812 109.507812 C 167.289062 109.277344 168.449219 109.078125 169.617188 108.902344 C 170.78125 108.730469 171.949219 108.585938 173.125 108.472656 C 174.296875 108.355469 175.472656 108.269531 176.648438 108.214844 C 177.824219 108.15625 179.003906 108.125 180.179688 108.125 C 181.359375 108.125 182.535156 108.15625 183.714844 108.214844 C 184.890625 108.269531 186.066406 108.355469 187.238281 108.472656 C 188.410156 108.585938 189.578125 108.730469 190.746094 108.902344 C 191.910156 109.078125 193.070312 109.277344 194.226562 109.507812 C 195.382812 109.734375 196.53125 109.992188 197.675781 110.28125 C 198.816406 110.566406 199.953125 110.878906 201.082031 111.21875 C 202.207031 111.5625 203.328125 111.929688 204.4375 112.324219 C 205.546875 112.722656 206.644531 113.144531 207.734375 113.59375 C 208.820312 114.046875 209.898438 114.523438 210.964844 115.023438 C 212.027344 115.527344 213.082031 116.054688 214.121094 116.609375 C 215.160156 117.164062 216.183594 117.742188 217.195312 118.347656 C 218.207031 118.953125 219.199219 119.582031 220.179688 120.234375 C 221.160156 120.886719 222.125 121.566406 223.070312 122.265625 C 224.015625 122.964844 224.945312 123.691406 225.855469 124.4375 C 226.765625 125.179688 227.660156 125.949219 228.53125 126.738281 C 229.40625 127.527344 230.257812 128.339844 231.089844 129.171875 C 231.925781 130.003906 232.734375 130.855469 233.527344 131.726562 C 234.320312 132.597656 235.089844 133.484375 235.835938 134.394531 C 236.582031 135.304688 237.308594 136.230469 238.011719 137.175781 C 238.710938 138.121094 239.390625 139.082031 240.046875 140.058594 C 240.699219 141.035156 241.328125 142.03125 241.9375 143.039062 C 242.542969 144.046875 243.121094 145.070312 243.675781 146.105469 C 244.234375 147.144531 244.761719 148.195312 245.265625 149.257812 C 245.769531 150.320312 246.246094 151.394531 246.699219 152.480469 C 247.148438 153.566406 247.574219 154.664062 247.96875 155.773438 C 248.367188 156.878906 248.738281 157.996094 249.078125 159.121094 C 249.421875 160.246094 249.734375 161.378906 250.019531 162.519531 C 250.308594 163.660156 250.566406 164.808594 250.796875 165.960938 C 251.027344 167.113281 251.226562 168.273438 251.398438 169.433594 C 251.574219 170.597656 251.71875 171.765625 251.832031 172.933594 C 251.949219 174.105469 252.035156 175.277344 252.09375 176.453125 C 252.148438 177.628906 252.179688 178.804688 252.179688 179.980469 Z M 252.179688 179.980469 "/></g><path style="fill-rule:evenodd;fill:#ffffff;fill-opacity:1;stroke-width:2.14;stroke-linecap:round;stroke-linejoin:round;stroke:#ffffff;stroke-opacity:1;stroke-miterlimit:1.5;" d="M 30640.397276 9422.354075 L 30685.697751 9422.034829 L 30795.696292 9582.123095 L 30749.995492 9581.721757 Z M 30640.397276 9422.354075 " transform="matrix(0.429338,0,0,0.428255,-13008.268967,-3890.173757)"/><path style="fill-rule:evenodd;fill:#ffffff;fill-opacity:1;stroke-width:2.14;stroke-linecap:round;stroke-linejoin:round;stroke:#ffffff;stroke-opacity:1;stroke-miterlimit:1.5;" d="M 30776.799107 9422.034829 L 30790.901484 9422.034829 L 30653.999246 9582.123095 L 30640.397276 9582.123095 Z M 30776.799107 9422.034829 " transform="matrix(0.429338,0,0,0.428255,-13008.268967,-3890.173757)"/><path style=" stroke:none;fill-rule:evenodd;fill:#000000;fill-opacity:1;" d="M 154.847656 150.179688 L 163.867188 150.234375 L 205.554688 209.777344 L 196.539062 209.765625 Z M 154.847656 150.179688 "/><path style=" stroke:none;fill-rule:evenodd;fill:#000000;fill-opacity:1;" d="M 154.847656 150.179688 L 163.867188 150.234375 L 205.554688 209.777344 L 196.539062 209.765625 Z M 155.535156 150.546875 C 155.535156 150.546875 196.710938 209.40625 196.710938 209.40625 C 196.710938 209.40625 204.867188 209.417969 204.867188 209.417969 L 163.652344 150.59375 Z M 155.535156 150.546875 "/></g></svg>